<?xml version="1.0" encoding="UTF-8"?>
<svg id="_レイヤー_2" data-name="レイヤー 2" xmlns="http://www.w3.org/2000/svg" xmlns:xlink="http://www.w3.org/1999/xlink" viewBox="0 0 1299.82 533.05">
  <defs>
    <style>
      .cls-1 {
        fill: #231815;
      }

      .cls-2 {
        fill: url(#_名称未設定グラデーション_13-6);
      }

      .cls-3 {
        fill: url(#_名称未設定グラデーション_13-7);
      }

      .cls-4 {
        fill: url(#_名称未設定グラデーション_13-5);
      }

      .cls-5 {
        fill: url(#_名称未設定グラデーション_13-4);
      }

      .cls-6 {
        fill: url(#_名称未設定グラデーション_13-3);
      }

      .cls-7 {
        fill: url(#_名称未設定グラデーション_13-2);
      }

      .cls-8 {
        fill: url(#_名称未設定グラデーション_13);
      }
    </style>
    <linearGradient id="_名称未設定グラデーション_13" data-name="名称未設定グラデーション 13" x1="607.64" y1="326.21" x2="545.01" y2="388.84" gradientUnits="userSpaceOnUse">
      <stop offset="0" stop-color="#00a0e9"/>
      <stop offset=".47" stop-color="#009de6"/>
      <stop offset=".67" stop-color="#0096df"/>
      <stop offset=".82" stop-color="#018ad3"/>
      <stop offset=".95" stop-color="#0278c2"/>
      <stop offset="1" stop-color="#036eb8"/>
    </linearGradient>
    <linearGradient id="_名称未設定グラデーション_13-2" data-name="名称未設定グラデーション 13" x1="697.64" y1="326.21" x2="635.01" y2="388.83" xlink:href="#_名称未設定グラデーション_13"/>
    <linearGradient id="_名称未設定グラデーション_13-3" data-name="名称未設定グラデーション 13" x1="821.65" y1="360.32" x2="740.74" y2="441.22" xlink:href="#_名称未設定グラデーション_13"/>
    <linearGradient id="_名称未設定グラデーション_13-4" data-name="名称未設定グラデーション 13" x1="842.75" y1="-16.9" x2="472.39" y2="353.47" xlink:href="#_名称未設定グラデーション_13"/>
    <linearGradient id="_名称未設定グラデーション_13-5" data-name="名称未設定グラデーション 13" x1="1086.42" y1="260.05" x2="891.49" y2="454.99" xlink:href="#_名称未設定グラデーション_13"/>
    <linearGradient id="_名称未設定グラデーション_13-6" data-name="名称未設定グラデーション 13" x1="1167.47" y1="217.82" x2="1136.13" y2="249.16" xlink:href="#_名称未設定グラデーション_13"/>
    <linearGradient id="_名称未設定グラデーション_13-7" data-name="名称未設定グラデーション 13" x1="1254.73" y1="326.21" x2="1192.1" y2="388.83" xlink:href="#_名称未設定グラデーション_13"/>
  </defs>
  <g id="twitter_new">
    <g>
      <polygon class="cls-1" points="264 145.08 40 533.05 0 533.05 238.64 119.72 264 145.08"/>
      <polygon class="cls-1" points="337.41 218.49 367.41 248.49 244.44 248.49 261.76 218.49 337.41 218.49"/>
      <polygon class="cls-1" points="565.47 446.55 515.58 446.55 447.43 328.51 565.47 446.55"/>
      <polygon class="cls-8" points="549.93 268.49 652.73 446.55 602.73 446.55 499.93 268.49 549.93 268.49"/>
      <polygon class="cls-7" points="639.92 268.49 742.73 446.55 692.73 446.55 589.92 268.49 639.92 268.49"/>
      <polygon class="cls-6" points="729.82 268.49 882.57 533.05 832.57 533.05 679.82 268.49 729.82 268.49"/>
      <polygon class="cls-5" points="451.23 248.49 565.58 446.55 565.47 446.55 447.43 328.51 401.23 248.49 367.41 248.49 337.41 218.49 383.91 218.49 334.98 133.74 302.76 77.94 264 145.08 238.64 119.72 282.76 43.3 307.76 0 327.76 34.64 359.98 90.44 433.91 218.49 1078.14 218.49 1095.46 248.49 451.23 248.49"/>
      <path class="cls-4" d="m1147.01,357.52c0,49.17-39.86,89.03-89.03,89.03-24.24,0-46.2-9.68-62.25-25.4,9.35-11.1,16.29-24.27,20.05-38.71,8.54,14.42,24.26,24.11,42.2,24.11,27.03,0,49.03-22,49.03-49.03s-22-49.03-49.03-49.03c-17.94,0-33.66,9.69-42.2,24.11-4.34,7.3-6.83,15.82-6.83,24.92,0,21.32-7.49,40.89-20,56.22-2.12,2.61-4.38,5.08-6.78,7.41-16.04,15.72-38.01,25.4-62.24,25.4-49.17,0-89.03-39.86-89.03-89.03s39.86-89.03,89.03-89.03c24.23,0,46.2,9.68,62.24,25.4-9.34,11.1-16.29,24.27-20.04,38.71-8.55-14.42-24.26-24.11-42.2-24.11-27.04,0-49.03,22-49.03,49.03s21.99,49.03,49.03,49.03c17.94,0,33.65-9.69,42.2-24.11,4.33-7.3,6.82-15.82,6.82-24.92,0-21.32,7.49-40.89,20-56.22,2.12-2.61,4.38-5.08,6.78-7.41,16.05-15.72,38.01-25.4,62.25-25.4,49.17,0,89.03,39.86,89.03,89.03Z"/>
      <polygon class="cls-2" points="1135.46 248.49 1118.14 218.49 1168.14 218.49 1185.46 248.49 1135.46 248.49"/>
      <polygon class="cls-3" points="1299.82 446.55 1249.82 446.55 1147.01 268.49 1197.01 268.49 1299.82 446.55"/>
    </g>
  </g>
</svg>