<svg width="560" height="229" viewBox="0 0 560 229" fill="none" xmlns="http://www.w3.org/2000/svg">
<g clip-path="url(#clip0_5_82094)">
<path d="M113.739 62.3268L17.2332 229H0L102.813 51.4321L113.739 62.3268Z" fill="white"/>
<path d="M145.366 93.864L158.291 106.752H105.312L112.774 93.864H145.366Z" fill="white"/>
<path d="M243.621 191.839H222.127L192.766 141.129L243.621 191.839Z" fill="white"/>
<path d="M236.926 115.344L281.215 191.839H259.673L215.384 115.344H236.926Z" fill="white"/>
<path d="M275.696 115.344L319.99 191.839H298.448L254.155 115.344H275.696Z" fill="white"/>
<path d="M314.427 115.344L380.237 229H358.695L292.886 115.344H314.427Z" fill="white"/>
<path d="M194.403 106.752L243.668 191.839H243.621L192.766 141.129L172.861 106.752H158.291L145.366 93.864H165.4L144.319 57.4551L130.438 33.4833L113.739 62.3268L102.813 51.4321L121.821 18.6018L132.592 0L141.208 14.8815L155.09 38.8533L186.941 93.864H464.494L471.956 106.752H194.403Z" fill="white"/>
<path d="M494.165 153.592C494.165 174.715 476.992 191.839 455.808 191.839C445.365 191.839 435.904 187.681 428.989 180.927C433.018 176.159 436.008 170.501 437.627 164.297C441.307 170.492 448.079 174.655 455.808 174.655C467.454 174.655 476.932 165.204 476.932 153.592C476.932 141.98 467.454 132.528 455.808 132.528C448.079 132.528 441.307 136.691 437.627 142.886C435.758 146.022 434.685 149.682 434.685 153.592C434.685 162.751 431.458 171.158 426.068 177.744C425.155 178.865 424.181 179.926 423.147 180.927C416.237 187.681 406.771 191.839 396.333 191.839C375.149 191.839 357.976 174.715 357.976 153.592C357.976 132.468 375.149 115.344 396.333 115.344C406.771 115.344 416.237 119.503 423.147 126.256C419.123 131.025 416.129 136.683 414.513 142.886C410.83 136.691 404.062 132.528 396.333 132.528C384.683 132.528 375.209 141.98 375.209 153.592C375.209 165.204 384.683 174.655 396.333 174.655C404.062 174.655 410.83 170.492 414.513 164.297C416.379 161.161 417.452 157.501 417.452 153.592C417.452 144.433 420.679 136.025 426.068 129.439C426.982 128.318 427.955 127.257 428.989 126.256C435.904 119.503 445.365 115.344 455.808 115.344C476.992 115.344 494.165 132.468 494.165 153.592Z" fill="white"/>
<path d="M489.189 106.752L481.727 93.864H503.268L510.73 106.752H489.189Z" fill="white"/>
<path d="M560 191.839H538.459L494.165 115.344H515.706L560 191.839Z" fill="white"/>
</g>
<defs>
<clipPath id="clip0_5_82094">
<rect width="560" height="229" fill="white"/>
</clipPath>
</defs>
</svg>
